<svg version="1.1" id="Layer_1" xmlns="http://www.w3.org/2000/svg" xmlns:xlink="http://www.w3.org/1999/xlink" x="0px" y="0px"
	 width="100%" viewBox="0 0 76 51" enable-background="new 0 0 76 51" xml:space="preserve">
<path fill="#FAA7A7" opacity="1.000000" stroke="none" 
	d="
M47.000000,52.000000 
	C31.333336,52.000000 16.166670,52.000000 1.000004,52.000000 
	C1.000003,35.000004 1.000003,18.000008 1.000001,1.000009 
	C26.333326,1.000006 51.666653,1.000006 76.999985,1.000003 
	C76.999985,17.999990 76.999985,34.999981 76.999992,51.999985 
	C67.166664,52.000000 57.333332,52.000000 47.000000,52.000000 
M40.137707,33.379498 
	C40.128159,30.547722 40.169579,27.714685 40.099689,24.884399 
	C39.872086,15.667567 35.716473,12.705914 26.748110,15.283465 
	C25.203835,15.727297 23.595314,16.387117 22.049736,16.306820 
	C16.816090,16.034920 11.601505,15.376323 6.367447,15.158763 
	C5.755527,15.133327 4.526346,16.921595 4.502213,17.891899 
	C4.336594,24.550856 4.335544,31.217978 4.507034,37.876659 
	C4.531480,38.825886 5.774532,39.743721 6.453589,40.676086 
	C7.102880,39.746292 8.272605,38.838634 8.313253,37.882950 
	C8.511286,33.227066 8.730276,28.529999 8.323932,23.901758 
	C7.875387,18.792850 11.408940,18.613884 14.651653,18.247936 
	C18.338881,17.831823 20.190817,19.799208 20.204456,23.552586 
	C20.221397,28.214592 20.204023,32.884850 20.506754,37.531658 
	C20.577469,38.617100 21.877481,39.622459 22.611902,40.664661 
	C23.188696,39.671871 24.225405,38.696163 24.263023,37.683346 
	C24.429821,33.192669 24.801220,28.620872 24.168854,24.211769 
	C23.385294,18.748468 26.955418,18.593838 30.394335,18.241747 
	C34.093227,17.863039 35.956497,19.842112 35.984631,23.559109 
	C36.019932,28.222395 35.915070,32.896545 36.232891,37.541222 
	C36.315708,38.751568 37.744286,39.869823 38.554771,41.030376 
	C39.082520,40.760693 39.610268,40.491013 40.138016,40.221329 
	C40.138016,38.258564 40.138016,36.295799 40.137707,33.379498 
M53.163723,17.195360 
	C51.579102,16.697195 49.994476,16.199028 48.409855,15.700863 
	C48.191010,16.117352 47.972164,16.533838 47.753319,16.950325 
	C51.441963,19.537703 55.130611,22.125080 59.220280,24.993753 
	C55.483540,24.601210 52.142742,24.250259 48.801941,23.899311 
	C48.697712,24.202358 48.593483,24.505407 48.489254,24.808455 
	C51.737934,26.503853 54.986610,28.199251 58.235291,29.894648 
	C58.105930,30.191784 57.976570,30.488920 57.847210,30.786057 
	C55.731068,30.924911 53.614922,31.063766 51.498779,31.202621 
	C51.391331,31.614405 51.283878,32.026188 51.176430,32.437973 
	C53.879581,33.179615 56.582733,33.921257 59.606525,34.750870 
	C58.356213,35.354523 57.217148,35.904465 56.078087,36.454407 
	C56.152580,36.853718 56.227074,37.253033 56.301567,37.652348 
	C58.290379,37.543060 60.352428,37.729866 62.252037,37.259968 
	C65.707245,36.405270 68.656754,36.004795 70.731140,39.902561 
	C71.068199,40.535885 73.618080,39.991547 76.038979,39.991547 
	C74.875412,38.310127 74.679955,37.813534 74.317009,37.535927 
	C70.134811,34.337086 66.888542,30.861181 68.798019,24.860483 
	C69.015396,24.177359 66.929253,22.243185 65.580658,21.678411 
	C61.765953,20.080858 57.779449,18.893528 53.163723,17.195360 
z"/>
<path fill="#211616" opacity="1.000000" stroke="none" 
	d="
M40.137863,33.856266 
	C40.138016,36.295799 40.138016,38.258564 40.138016,40.221329 
	C39.610268,40.491013 39.082520,40.760693 38.554771,41.030376 
	C37.744286,39.869823 36.315708,38.751568 36.232891,37.541222 
	C35.915070,32.896545 36.019932,28.222395 35.984631,23.559109 
	C35.956497,19.842112 34.093227,17.863039 30.394335,18.241747 
	C26.955418,18.593838 23.385294,18.748468 24.168854,24.211769 
	C24.801220,28.620872 24.429821,33.192669 24.263023,37.683346 
	C24.225405,38.696163 23.188696,39.671871 22.611904,40.664661 
	C21.877481,39.622459 20.577469,38.617100 20.506754,37.531658 
	C20.204023,32.884850 20.221397,28.214592 20.204456,23.552586 
	C20.190817,19.799208 18.338881,17.831823 14.651653,18.247936 
	C11.408940,18.613884 7.875387,18.792850 8.323932,23.901758 
	C8.730276,28.529999 8.511286,33.227066 8.313253,37.882950 
	C8.272605,38.838634 7.102880,39.746292 6.453589,40.676086 
	C5.774532,39.743721 4.531480,38.825886 4.507034,37.876659 
	C4.335544,31.217978 4.336594,24.550856 4.502213,17.891899 
	C4.526346,16.921595 5.755527,15.133327 6.367447,15.158763 
	C11.601505,15.376323 16.816090,16.034920 22.049736,16.306820 
	C23.595314,16.387117 25.203835,15.727297 26.748110,15.283465 
	C35.716473,12.705914 39.872086,15.667567 40.099689,24.884399 
	C40.169579,27.714685 40.128159,30.547722 40.137863,33.856266 
z"/>
<path fill="#170F0F" opacity="1.000000" stroke="none" 
	d="
M53.512177,17.369976 
	C57.779449,18.893528 61.765953,20.080858 65.580658,21.678411 
	C66.929253,22.243185 69.015396,24.177359 68.798019,24.860483 
	C66.888542,30.861181 70.134811,34.337086 74.317009,37.535927 
	C74.679955,37.813534 74.875412,38.310127 76.038979,39.991547 
	C73.618080,39.991547 71.068199,40.535885 70.731140,39.902561 
	C68.656754,36.004795 65.707245,36.405270 62.252037,37.259968 
	C60.352428,37.729866 58.290379,37.543060 56.301567,37.652348 
	C56.227074,37.253033 56.152580,36.853718 56.078087,36.454407 
	C57.217148,35.904465 58.356213,35.354523 59.606525,34.750870 
	C56.582733,33.921257 53.879581,33.179615 51.176430,32.437973 
	C51.283878,32.026188 51.391331,31.614405 51.498779,31.202621 
	C53.614922,31.063766 55.731068,30.924911 57.847210,30.786057 
	C57.976570,30.488920 58.105930,30.191784 58.235291,29.894648 
	C54.986610,28.199251 51.737934,26.503853 48.489254,24.808455 
	C48.593483,24.505407 48.697712,24.202358 48.801941,23.899311 
	C52.142742,24.250259 55.483540,24.601210 59.220280,24.993753 
	C55.130611,22.125080 51.441963,19.537703 47.753319,16.950325 
	C47.972164,16.533838 48.191010,16.117352 48.409855,15.700863 
	C49.994476,16.199028 51.579102,16.697195 53.512177,17.369976 
z"/>
</svg>